#N canvas 623 22 605 756 10;
#X msg 161 12 read;
#X floatatom 227 237 5 0 0 0 - - -, f 5;
#X obj 161 330 route float list;
#X obj 161 628 print data;
#X msg 161 549 0 0 0 0 600 600 480 480 420;
#X obj 207 459 t b b;
#X msg 183 487 set;
#X msg 161 516 add2 \$1;
#X obj 265 147 until;
#X obj 265 199 count 1001;
#X msg 210 182 reset;
#X obj 322 148 + 1;
#X text 135 12 1;
#X obj 279 358 s \$0-done;
#X obj 324 105 r \$0-done;
#X text 267 235 print data sets containing \; x points;
#X text 230 52 read until (max);
#X text 148 51 2;
#X obj 265 83 t f f b;
#X obj 518 341 print out2;
#X msg 195 51 10;
#X obj 161 277 pbank ./bus-mov-model-sp/20170413_easter/map_20170413.xml
40, f 63;
#X connect 0 0 21 0;
#X connect 1 0 21 0;
#X connect 2 0 7 0;
#X connect 2 1 5 0;
#X connect 2 2 13 0;
#X connect 4 0 3 0;
#X connect 5 0 6 0;
#X connect 5 1 4 0;
#X connect 6 0 4 0;
#X connect 7 0 4 0;
#X connect 8 0 9 0;
#X connect 9 0 1 0;
#X connect 10 0 9 0;
#X connect 11 0 9 1;
#X connect 14 0 8 1;
#X connect 18 0 8 0;
#X connect 18 1 11 0;
#X connect 18 2 10 0;
#X connect 20 0 18 0;
#X connect 21 0 2 0;
