#N struct text float x float y text t;
#N canvas 0 22 1160 611 10;
#X obj 109 225 purest_json/json-encode;
#X msg 16 100 read ./bus-mov-model-sp/20170413_easter/map_20170413.json
;
#X obj 109 130 bng 15 250 50 0 empty empty empty 17 7 0 10 -262144
-1 -1;
#X obj 109 292 json-decode;
#X obj 149 372 list trim;
#X obj 149 394 route _id _x _y, f 16;
#X obj 114 412 f;
#X obj 148 483 print;
#X obj 148 462 pack f f f, f 11;
#X obj 337 227 purest_json/json-encode;
#X obj 337 294 json-decode;
#X obj 377 374 list trim;
#X obj 377 396 route _id _x _y, f 16;
#X obj 342 414 f;
#X obj 376 485 print;
#X obj 376 464 pack f f f, f 11;
#X msg 677 99 read ./bus-mov-model-sp/20170413_easter/map_20170413.json
;
#X msg 754 126 read ./bus-mov-model-sp/20170413_easter/buses_quinta.json
;
#X floatatom 649 293 5 0 0 0 - - -, f 5;
#X obj 688 445 print 1;
#X obj 648 214 metro 300;
#X obj 648 178 tgl 30 0 empty empty empty 17 7 0 10 -262144 -1 -1 0
1;
#X obj 649 235 f;
#X obj 684 235 + 1;
#X msg 727 195 0;
#X obj 582 158 bng 45 250 50 0 empty empty empty 17 7 0 10 -262144
-1 -1;
#X scalar text 757 153 \; \;;
#X obj 780 178 text define - k buses_quinta;
#X obj 688 407 text get -s buses_quinta;
#X connect 0 0 3 0;
#X connect 1 0 0 0;
#X connect 2 0 0 0;
#X connect 3 0 4 0;
#X connect 3 1 6 0;
#X connect 4 0 5 0;
#X connect 5 0 6 1;
#X connect 5 1 8 1;
#X connect 5 2 8 2;
#X connect 6 0 8 0;
#X connect 8 0 7 0;
#X connect 9 0 10 0;
#X connect 10 0 11 0;
#X connect 10 1 13 0;
#X connect 11 0 12 0;
#X connect 12 0 13 1;
#X connect 12 1 15 1;
#X connect 12 2 15 2;
#X connect 13 0 15 0;
#X connect 15 0 14 0;
#X connect 17 0 27 0;
#X connect 18 0 28 0;
#X connect 20 0 22 0;
#X connect 21 0 20 0;
#X connect 22 0 23 0;
#X connect 22 0 18 0;
#X connect 23 0 22 1;
#X connect 24 0 22 1;
#X connect 25 0 22 0;
#X connect 28 0 19 0;
