#N canvas 231 73 451 572 10;
#X declare -lib pof;
#X obj 290 469 declare -lib pof;
#X obj 35 313 print BuzaumS;
#X obj 617 509 print MapaS;
#X obj 35 248 pofxml buzaums;
#X obj 617 486 pofxml mapas;
#X msg 35 50 load ./modelo.xml;
#X msg 49 88 symbol 1015-10-0;
#X msg 49 117 gets bus[@id=\$1][@start_time];
#X msg 250 63 symbol 1016-10-1;
#X msg 617 67 getnum /;
#X msg 617 42 load ./mapa_modelo.xml;
#X msg 617 104 getnum links;
#X msg 276 182 symbol 1016-10-1;
#X msg 617 85 getnum nodes;
#X obj 631 146 hradio 15 1 0 15 empty empty empty 0 -8 0 10 -262144
-1 -1 1;
#X msg 633 219 18849;
#X obj 724 469 print msg;
#X obj 617 453 t a a;
#X text 956 533 .;
#X text 395 470 ======>;
#X msg 276 203 get bus[@id=\$1][@interval];
#X obj 35 277 route get gets;
#X msg 250 139 gets bus[@id=\$1][@stops];
#X msg 617 251 gets nodes/node[@id=\$1][@x];
#X msg 617 171 gets nodes/node[\$1][@id];
#X connect 3 0 21 0;
#X connect 4 0 2 0;
#X connect 5 0 3 0;
#X connect 6 0 7 0;
#X connect 7 0 3 0;
#X connect 8 0 22 0;
#X connect 9 0 17 0;
#X connect 10 0 17 0;
#X connect 11 0 17 0;
#X connect 12 0 20 0;
#X connect 13 0 17 0;
#X connect 14 0 24 0;
#X connect 15 0 23 0;
#X connect 17 0 4 0;
#X connect 17 1 16 0;
#X connect 20 0 3 0;
#X connect 21 0 1 0;
#X connect 21 1 1 0;
#X connect 22 0 3 0;
#X connect 23 0 17 0;
#X connect 24 0 17 0;
