#N canvas 671 618 965 300 10;
#X obj 722 175 oscparse;
#X msg 37 67 disconnect;
#X msg 650 36 listen 8050;
#X msg 670 62 listen 0;
#X msg 721 240 1 fader5 0.645669, f 22;
#X obj 126 60 hsl 128 15 0.01 1.01 1 0 empty empty empty -2 -8 0 10
-262144 -1 -1 0 1;
#X obj 101 168 list prepend send;
#X obj 101 189 list trim;
#X obj 722 145 netreceive -u -b 8050;
#X floatatom 87 252 5 0 0 0 - - -, f 5;
#X floatatom 120 106 12 0 0 0 - - -, f 12;
#X obj 86 226 netsend -u -b;
#X obj 123 83 - 0.01;
#X obj 723 218 list trim;
#X obj 723 197 list prepend set;
#X obj 101 137 oscformat /1/fader5;
#X obj 496 39 hradio 15 1 0 4 empty empty empty 0 -8 0 10 -262144 -1
-1 1;
#X obj 496 59 + 1;
#X floatatom 496 80 5 0 0 0 - - -, f 5;
#X msg 710 106 listen 9050;
#X msg 526 131 set \$1;
#X obj 313 127 oscformat 2 push2;
#X obj 313 37 tgl 15 0 empty empty empty 17 7 0 10 -262144 -1 -1 0
1;
#X msg 21 36 connect 255.255.255.255 9050;
#X obj 470 135 i;
#X obj 499 96 t f f;
#X obj 470 206 oscformat /;
#X obj 23 4 loadbang;
#X obj 650 9 loadbang;
#X connect 0 0 14 0;
#X connect 1 0 11 0;
#X connect 2 0 8 0;
#X connect 3 0 8 0;
#X connect 5 0 12 0;
#X connect 6 0 7 0;
#X connect 7 0 11 0;
#X connect 8 0 0 0;
#X connect 10 0 15 0;
#X connect 11 0 9 0;
#X connect 12 0 10 0;
#X connect 13 0 4 0;
#X connect 14 0 13 0;
#X connect 15 0 6 0;
#X connect 16 0 17 0;
#X connect 17 0 18 0;
#X connect 18 0 25 0;
#X connect 19 0 8 0;
#X connect 20 0 26 0;
#X connect 21 0 6 0;
#X connect 22 0 21 0;
#X connect 23 0 11 0;
#X connect 24 0 26 0;
#X connect 25 0 24 0;
#X connect 25 1 20 0;
#X connect 26 0 6 0;
#X connect 27 0 23 0;
#X connect 28 0 2 0;
