#N canvas 226 67 882 627 10;
#X obj 222 591 dac~ 1 2;
#X obj 360 590 dac~ 3 4;
#X obj 500 592 dac~ 5 6;
#X text 25 4 flite : text-to-speech synthesis with libflite;
#N canvas 0 0 450 300 (subpatch) 0;
#X array words1 249768 float 0;
#X coords 0 1 249767 -1 100 70 1;
#X restore 370 398 graph;
#N canvas 0 0 450 300 (subpatch) 0;
#X array words2 112963 float 0;
#X coords 0 1 112962 -1 100 70 1;
#X restore 531 401 graph;
#X obj 22 298 print flite-synth-done;
#X obj 23 279 flite words1;
#X text 51 35 ARRAYNAME - initial array name;
#X text 328 32 1 - control messages;
#X text 321 59 1 - bang on completed synthesis;
#X text 30 22 ARGUMENTS:;
#X text 312 18 INLETS:;
#X text 305 45 OUTLETS:;
#X msg 27 81 set words1;
#X msg 34 99 set words2;
#X msg 64 167 synth;
#X text 104 170 "synth" message synthesizes current text-buffer;
#X text 157 145 "text" message sets input text-buffer;
#X text 108 87 "set" message selects the output array;
#X text 225 211 "list" messages set text and synthesize;
#X obj 515 183 dac~;
#X msg 746 97 \; pd dsp 1;
#X msg 812 97 \; pd dsp 0;
#X text 494 79 For playback \, you can use 'tabplay~':;
#X msg 448 97 set words1;
#X msg 453 117 set words2;
#X obj 515 156 tabplay~ words1;
#X msg 630 119 bang;
#X msg 681 120 stop;
#X msg 630 97 start;
#X msg 58 145 text test 123;
#N canvas 0 0 450 300 (subpatch) 0;
#X array words3 112963 float 0;
#X coords 0 1 112962 -1 100 70 1 0 0;
#X restore 667 401 graph;
#X msg 472 136 set words3;
#X msg 45 118 set words3;
#X msg 61 211 list Im 1;
#X connect 7 0 6 0;
#X connect 14 0 7 0;
#X connect 15 0 7 0;
#X connect 16 0 7 0;
#X connect 25 0 27 0;
#X connect 26 0 27 0;
#X connect 27 0 21 0;
#X connect 27 0 21 1;
#X connect 28 0 27 0;
#X connect 29 0 27 0;
#X connect 30 0 28 0;
#X connect 31 0 7 0;
#X connect 33 0 27 0;
#X connect 34 0 7 0;
#X connect 35 0 7 0;
