#N canvas 439 240 1090 588 10;
#X obj 58 46 loadbang;
#X msg 87 92 disconnect;
#X msg 58 67 connect 255.255.255.255 5050;
#X obj 53 196 loadbang;
#X msg 53 217 listen 5051;
#X obj 172 182 netsend -u;
#X obj 147 316 netreceive -u;
#X obj 315 122 pack f f f f;
#X floatatom 277 41 5 0 127 0 - - -, f 5;
#X floatatom 315 41 5 0 127 0 - - -, f 5;
#X msg 315 147 send \$1 \$2 \$3 \$4;
#X obj 315 81 t b f;
#X floatatom 359 41 5 0 127 0 - - -, f 5;
#X obj 359 81 t b f;
#X floatatom 398 41 5 0 127 0 - - -, f 5;
#X obj 398 81 t b f;
#X obj 171 414 vsl 15 128 0 127 0 0 empty empty empty 0 -9 0 10 -262144
-1 -1 0 1;
#X obj 171 551 bng 15 250 50 0 empty empty empty 17 7 0 10 -262144
-1 -1;
#X obj 201 414 vsl 15 128 0 127 0 0 empty empty empty 0 -9 0 10 -262144
-1 -1 0 1;
#X obj 201 551 bng 15 250 50 0 empty empty empty 17 7 0 10 -262144
-1 -1;
#X obj 231 414 vsl 15 128 0 127 0 0 empty empty empty 0 -9 0 10 -262144
-1 -1 0 1;
#X obj 231 551 bng 15 250 50 0 empty empty empty 17 7 0 10 -262144
-1 -1;
#X obj 261 414 vsl 15 128 0 127 0 0 empty empty empty 0 -9 0 10 -262144
-1 -1 0 1;
#X obj 261 551 bng 15 250 50 0 empty empty empty 17 7 0 10 -262144
-1 -1;
#X obj 147 385 route slider1 slider2 slider3 slider4;
#X obj 602 197 netsend -b -u;
#X obj 573 46 loadbang;
#X msg 602 92 disconnect;
#X obj 430 224 loadbang;
#X obj 483 395 vsl 15 128 0 127 0 0 empty empty empty 0 -9 0 10 -262144
-1 -1 0 1;
#X obj 483 532 bng 15 250 50 0 empty empty empty 17 7 0 10 -262144
-1 -1;
#X obj 513 395 vsl 15 128 0 127 0 0 empty empty empty 0 -9 0 10 -262144
-1 -1 0 1;
#X obj 513 532 bng 15 250 50 0 empty empty empty 17 7 0 10 -262144
-1 -1;
#X obj 543 395 vsl 15 128 0 127 0 0 empty empty empty 0 -9 0 10 -262144
-1 -1 0 1;
#X obj 543 532 bng 15 250 50 0 empty empty empty 17 7 0 10 -262144
-1 -1;
#X obj 573 395 vsl 15 128 0 127 0 0 empty empty empty 0 -9 0 10 -262144
-1 -1 0 1;
#X obj 573 532 bng 15 250 50 0 empty empty empty 17 7 0 10 -262144
-1 -1;
#X obj 459 366 route slider1 slider2 slider3 slider4;
#X msg 430 245 listen 6061;
#X obj 459 330 fudiparse;
#X msg 459 270 listen 0;
#X msg 82 242 listen 0;
#X obj 459 309 netreceive -u -b;
#X obj 883 99 pack f f f f;
#X floatatom 845 28 5 0 127 0 - - -, f 5;
#X floatatom 883 28 5 0 127 0 - - -, f 5;
#X obj 883 58 t b f;
#X floatatom 927 28 5 0 127 0 - - -, f 5;
#X obj 927 58 t b f;
#X floatatom 966 28 5 0 127 0 - - -, f 5;
#X obj 966 58 t b f;
#X obj 883 123 fudiformat;
#X msg 573 67 connect 255.255.255.255 6060;
#X obj 708 181 list trim;
#X obj 708 160 list prepend send;
#X connect 0 0 2 0;
#X connect 1 0 5 0;
#X connect 2 0 5 0;
#X connect 3 0 4 0;
#X connect 4 0 6 0;
#X connect 6 0 24 0;
#X connect 7 0 10 0;
#X connect 8 0 7 0;
#X connect 9 0 11 0;
#X connect 10 0 5 0;
#X connect 11 0 7 0;
#X connect 11 1 7 1;
#X connect 12 0 13 0;
#X connect 13 0 7 0;
#X connect 13 1 7 2;
#X connect 14 0 15 0;
#X connect 15 0 7 0;
#X connect 15 1 7 3;
#X connect 16 0 17 0;
#X connect 18 0 19 0;
#X connect 20 0 21 0;
#X connect 22 0 23 0;
#X connect 24 0 16 0;
#X connect 24 1 18 0;
#X connect 24 2 20 0;
#X connect 24 3 22 0;
#X connect 26 0 52 0;
#X connect 27 0 25 0;
#X connect 28 0 38 0;
#X connect 29 0 30 0;
#X connect 31 0 32 0;
#X connect 33 0 34 0;
#X connect 35 0 36 0;
#X connect 37 0 29 0;
#X connect 37 1 31 0;
#X connect 37 2 33 0;
#X connect 37 3 35 0;
#X connect 38 0 42 0;
#X connect 39 0 37 0;
#X connect 40 0 42 0;
#X connect 41 0 6 0;
#X connect 42 0 39 0;
#X connect 43 0 51 0;
#X connect 44 0 43 0;
#X connect 45 0 46 0;
#X connect 46 0 43 0;
#X connect 46 1 43 1;
#X connect 47 0 48 0;
#X connect 48 0 43 0;
#X connect 48 1 43 2;
#X connect 49 0 50 0;
#X connect 50 0 43 0;
#X connect 50 1 43 3;
#X connect 51 0 54 0;
#X connect 52 0 25 0;
#X connect 53 0 25 0;
#X connect 54 0 53 0;
