#N canvas 863 133 610 422 10;
#X obj 150 155 list prepend send;
#X obj 150 176 list trim;
#X obj 99 215 netsend -u -b;
#X msg 44 58 disconnect;
#X floatatom 99 236 5 0 0 0 - - -, f 5;
#X obj 346 114 netreceive -u -b 8050;
#X obj 346 135 oscparse;
#X msg 323 60 listen 0;
#X obj 340 200 list trim;
#X msg 340 221 4, f 23;
#X obj 340 179 list prepend set;
#X obj 153 61 hsl 128 15 0.01 1.01 0 0 empty empty empty -2 -8 0 10
-262144 -1 -1 0 1;
#X obj 150 134 oscformat 1 fader5;
#X floatatom 150 105 5 0 0 0 - - -, f 5;
#X msg 20 36 connect 192.168.0.255 9050;
#X obj 150 81 - 0.01;
#X msg 296 34 listen 8050;
#X obj 23 4 loadbang;
#X obj 292 10 loadbang;
#X connect 0 0 1 0;
#X connect 1 0 2 0;
#X connect 2 0 4 0;
#X connect 3 0 2 0;
#X connect 5 0 6 0;
#X connect 6 0 10 0;
#X connect 7 0 5 0;
#X connect 8 0 9 0;
#X connect 10 0 8 0;
#X connect 11 0 15 0;
#X connect 12 0 0 0;
#X connect 13 0 12 0;
#X connect 14 0 2 0;
#X connect 15 0 13 0;
#X connect 16 0 5 0;
#X connect 17 0 14 0;
#X connect 18 0 16 0;
